<svg width="282" height="57" viewBox="0 0 282 57" fill="none" xmlns="http://www.w3.org/2000/svg">
<path d="M176.602 4.644V5.784C175.386 5.936 174.455 6.259 173.809 6.753C173.201 7.209 172.802 7.95 172.612 8.976C172.422 10.002 172.327 11.446 172.327 13.308V28.413C172.327 30.883 172.156 33.144 171.814 35.196C171.472 37.248 170.864 39.015 169.99 40.497C169.002 42.131 167.558 43.423 165.658 44.373C163.758 45.323 161.345 45.798 158.419 45.798C156.671 45.798 154.885 45.589 153.061 45.171C151.237 44.791 149.603 44.05 148.159 42.948C146.943 41.922 146.012 40.763 145.366 39.471C144.72 38.179 144.283 36.659 144.055 34.911C143.827 33.125 143.713 31.016 143.713 28.584V10.686C143.713 9.28 143.599 8.254 143.371 7.608C143.181 6.924 142.782 6.468 142.174 6.24C141.566 5.974 140.654 5.822 139.438 5.784V4.644C140.388 4.682 141.661 4.72 143.257 4.758C144.891 4.796 146.582 4.815 148.33 4.815C150.078 4.815 151.75 4.796 153.346 4.758C154.98 4.72 156.329 4.682 157.393 4.644V5.784C156.101 5.822 155.113 5.974 154.429 6.24C153.783 6.468 153.346 6.924 153.118 7.608C152.89 8.254 152.776 9.28 152.776 10.686V32.175C152.776 34.721 153.004 36.868 153.46 38.616C153.916 40.326 154.714 41.618 155.854 42.492C157.032 43.366 158.628 43.803 160.642 43.803C163.302 43.803 165.373 43.176 166.855 41.922C168.375 40.668 169.439 38.939 170.047 36.735C170.693 34.493 171.016 31.928 171.016 29.04V13.992C171.016 11.902 170.883 10.306 170.617 9.204C170.351 8.064 169.819 7.247 169.021 6.753C168.261 6.259 167.083 5.936 165.487 5.784V4.644C166.209 4.682 167.159 4.72 168.337 4.758C169.515 4.796 170.617 4.815 171.643 4.815C172.555 4.815 173.448 4.796 174.322 4.758C175.234 4.72 175.994 4.682 176.602 4.644ZM188.704 14.904V49.674C188.704 51.46 189.16 52.638 190.072 53.208C190.984 53.816 192.238 54.12 193.834 54.12V55.317C192.846 55.279 191.478 55.222 189.73 55.146C188.02 55.108 186.196 55.089 184.258 55.089C182.852 55.089 181.465 55.108 180.097 55.146C178.767 55.222 177.76 55.279 177.076 55.317V54.12C178.33 54.12 179.204 53.854 179.698 53.322C180.23 52.79 180.496 51.764 180.496 50.244V21.744C180.496 20.034 180.23 18.78 179.698 17.982C179.166 17.146 178.216 16.728 176.848 16.728V15.531C178.064 15.645 179.242 15.702 180.382 15.702C181.94 15.702 183.422 15.645 184.828 15.531C186.234 15.379 187.526 15.17 188.704 14.904ZM197.539 14.733C200.427 14.733 202.84 15.911 204.778 18.267C206.754 20.623 207.742 24.176 207.742 28.926C207.742 32.612 207.191 35.709 206.089 38.217C204.987 40.725 203.448 42.625 201.472 43.917C199.534 45.171 197.216 45.798 194.518 45.798C193.036 45.798 191.687 45.532 190.471 45C189.255 44.506 188.324 43.784 187.678 42.834L188.248 42.093C188.628 42.777 189.16 43.309 189.844 43.689C190.566 44.069 191.383 44.259 192.295 44.259C194.005 44.259 195.354 43.689 196.342 42.549C197.33 41.371 198.033 39.737 198.451 37.647C198.907 35.519 199.135 32.992 199.135 30.066C199.135 26.798 198.926 24.233 198.508 22.371C198.09 20.509 197.52 19.179 196.798 18.381C196.076 17.583 195.202 17.184 194.176 17.184C192.808 17.184 191.554 17.716 190.414 18.78C189.312 19.844 188.685 21.364 188.533 23.34L188.248 21.345C188.932 19.179 190.091 17.545 191.725 16.443C193.397 15.303 195.335 14.733 197.539 14.733ZM221.882 0.368997V39.699C221.882 41.295 222.148 42.378 222.68 42.948C223.25 43.518 224.2 43.803 225.53 43.803V45C224.808 44.962 223.725 44.924 222.281 44.886C220.837 44.81 219.374 44.772 217.892 44.772C216.41 44.772 214.909 44.81 213.389 44.886C211.907 44.924 210.786 44.962 210.026 45V43.803C211.356 43.803 212.287 43.518 212.819 42.948C213.389 42.378 213.674 41.295 213.674 39.699V7.209C213.674 5.499 213.408 4.245 212.876 3.447C212.382 2.611 211.432 2.193 210.026 2.193V0.995999C211.242 1.11 212.42 1.167 213.56 1.167C215.118 1.167 216.6 1.11 218.006 0.995999C219.412 0.843999 220.704 0.634998 221.882 0.368997ZM234.365 0.824998C235.961 0.824998 237.215 1.224 238.127 2.022C239.077 2.782 239.552 3.846 239.552 5.214C239.552 6.582 239.077 7.665 238.127 8.463C237.215 9.223 235.961 9.603 234.365 9.603C232.769 9.603 231.496 9.223 230.546 8.463C229.634 7.665 229.178 6.582 229.178 5.214C229.178 3.846 229.634 2.782 230.546 2.022C231.496 1.224 232.769 0.824998 234.365 0.824998ZM238.811 14.904V39.699C238.811 41.295 239.077 42.378 239.609 42.948C240.179 43.518 241.129 43.803 242.459 43.803V45C241.775 44.962 240.711 44.924 239.267 44.886C237.823 44.81 236.36 44.772 234.878 44.772C233.396 44.772 231.895 44.81 230.375 44.886C228.855 44.924 227.715 44.962 226.955 45V43.803C228.285 43.803 229.216 43.518 229.748 42.948C230.318 42.378 230.603 41.295 230.603 39.699V21.744C230.603 20.034 230.337 18.78 229.805 17.982C229.311 17.146 228.361 16.728 226.955 16.728V15.531C228.171 15.645 229.349 15.702 230.489 15.702C232.085 15.702 233.567 15.645 234.935 15.531C236.341 15.379 237.633 15.17 238.811 14.904ZM258.982 0.425996C260.312 0.425996 261.471 0.596996 262.459 0.938996C263.447 1.281 264.321 1.737 265.081 2.307C265.613 2.725 266.069 3.314 266.449 4.074C266.829 4.796 267.019 5.632 267.019 6.582C267.019 7.608 266.639 8.52 265.879 9.318C265.157 10.116 264.188 10.515 262.972 10.515C261.718 10.515 260.673 10.154 259.837 9.432C259.039 8.71 258.64 7.722 258.64 6.468C258.64 5.48 258.925 4.606 259.495 3.846C260.065 3.086 260.901 2.554 262.003 2.25C261.889 2.022 261.661 1.832 261.319 1.68C260.977 1.528 260.521 1.452 259.951 1.452C259.191 1.452 258.564 1.585 258.07 1.851C257.576 2.117 257.177 2.478 256.873 2.934C256.455 3.504 256.17 4.34 256.018 5.442C255.866 6.506 255.79 8.159 255.79 10.401V15.588H261.889V16.728H255.79V39.129C255.79 40.991 256.265 42.245 257.215 42.891C258.165 43.499 259.476 43.803 261.148 43.803V45C260.16 44.962 258.773 44.924 256.987 44.886C255.201 44.81 253.32 44.772 251.344 44.772C249.9 44.772 248.475 44.81 247.069 44.886C245.701 44.924 244.656 44.962 243.934 45V43.803C245.264 43.803 246.195 43.518 246.727 42.948C247.297 42.378 247.582 41.295 247.582 39.699V16.728H243.706V15.588H247.582C247.582 12.206 247.848 9.641 248.38 7.893C248.912 6.107 249.843 4.568 251.173 3.276C252.009 2.478 253.111 1.813 254.479 1.281C255.885 0.710997 257.386 0.425996 258.982 0.425996ZM274.544 6.183V15.531H281.27V16.671H274.544V39.699C274.544 40.839 274.753 41.656 275.171 42.15C275.589 42.606 276.216 42.834 277.052 42.834C277.736 42.834 278.42 42.587 279.104 42.093C279.788 41.561 280.396 40.668 280.928 39.414L281.897 39.927C281.289 41.637 280.358 43.043 279.104 44.145C277.888 45.247 276.216 45.798 274.088 45.798C272.834 45.798 271.732 45.627 270.782 45.285C269.832 44.981 269.034 44.506 268.388 43.86C267.552 43.024 267.001 41.998 266.735 40.782C266.469 39.528 266.336 37.913 266.336 35.937V16.671H261.548V15.531H266.336V8.007C267.932 8.007 269.395 7.874 270.725 7.608C272.093 7.304 273.366 6.829 274.544 6.183Z" fill="#E85E07"/>
<path d="M19.5564 5.644C27.0424 5.644 32.6094 7.354 36.2574 10.774C39.9054 14.156 41.7294 19.02 41.7294 25.366C41.7294 29.508 40.8364 33.137 39.0504 36.253C37.2644 39.331 34.6614 41.725 31.2414 43.435C27.8594 45.145 23.7934 46 19.0434 46C18.1314 46 16.8204 45.981 15.1104 45.943C13.4384 45.867 11.9754 45.829 10.7214 45.829C9.04937 45.829 7.39637 45.848 5.76237 45.886C4.16637 45.886 2.89337 45.924 1.94337 46V44.86C3.15937 44.784 4.07137 44.632 4.67937 44.404C5.28737 44.176 5.68637 43.72 5.87637 43.036C6.10437 42.352 6.21837 41.326 6.21837 39.958V11.686C6.21837 10.28 6.10437 9.254 5.87637 8.608C5.68637 7.924 5.26837 7.468 4.62237 7.24C4.01437 6.974 3.12137 6.822 1.94337 6.784V5.644C2.89337 5.682 4.16637 5.739 5.76237 5.815C7.39637 5.853 9.01137 5.853 10.6074 5.815C11.9754 5.777 13.5144 5.739 15.2244 5.701C16.9724 5.663 18.4164 5.644 19.5564 5.644ZM19.4994 6.67C17.7514 6.67 16.6114 6.993 16.0794 7.639C15.5474 8.285 15.2814 9.596 15.2814 11.572V40.072C15.2814 42.048 15.5474 43.359 16.0794 44.005C16.6494 44.651 17.8084 44.974 19.5564 44.974C22.7484 44.974 25.2564 44.233 27.0804 42.751C28.9424 41.231 30.2724 39.027 31.0704 36.139C31.8684 33.251 32.2674 29.736 32.2674 25.594C32.2674 19.21 31.2794 14.46 29.3034 11.344C27.3274 8.228 24.0594 6.67 19.4994 6.67ZM51.7607 46.399C49.2147 46.399 47.3717 45.734 46.2317 44.404C45.0917 43.074 44.5217 41.459 44.5217 39.559C44.5217 37.925 44.8827 36.595 45.6047 35.569C46.3647 34.543 47.3337 33.707 48.5117 33.061C49.6897 32.377 50.9247 31.826 52.2167 31.408C53.5467 30.952 54.8007 30.515 55.9787 30.097C57.1947 29.641 58.1637 29.128 58.8857 28.558C59.6457 27.988 60.0257 27.266 60.0257 26.392V21.946C60.0257 20.958 59.8547 20.084 59.5127 19.324C59.2087 18.526 58.7147 17.918 58.0307 17.5C57.3847 17.082 56.5297 16.873 55.4657 16.873C54.7057 16.873 53.9457 16.987 53.1857 17.215C52.4257 17.405 51.7987 17.747 51.3047 18.241C52.3687 18.621 53.1857 19.21 53.7557 20.008C54.3637 20.768 54.6677 21.642 54.6677 22.63C54.6677 23.922 54.2117 24.948 53.2997 25.708C52.4257 26.468 51.3807 26.848 50.1647 26.848C48.7967 26.848 47.7517 26.43 47.0297 25.594C46.3457 24.72 46.0037 23.675 46.0037 22.459C46.0037 21.357 46.2697 20.445 46.8017 19.723C47.3717 19.001 48.1507 18.317 49.1387 17.671C50.2027 17.063 51.4757 16.588 52.9577 16.246C54.4777 15.904 56.1117 15.733 57.8597 15.733C59.6077 15.733 61.1847 15.923 62.5907 16.303C63.9967 16.645 65.1747 17.291 66.1247 18.241C66.9987 19.115 67.5687 20.198 67.8347 21.49C68.1007 22.744 68.2337 24.34 68.2337 26.278V41.782C68.2337 42.694 68.3287 43.34 68.5187 43.72C68.7087 44.1 69.0317 44.29 69.4877 44.29C69.8677 44.29 70.2287 44.195 70.5707 44.005C70.9127 43.815 71.2357 43.587 71.5397 43.321L72.1097 44.29C71.3117 44.974 70.3807 45.506 69.3167 45.886C68.2907 46.228 67.1317 46.399 65.8397 46.399C63.5597 46.399 62.0397 45.943 61.2797 45.031C60.5577 44.081 60.1777 42.998 60.1397 41.782C59.1897 43.34 58.0117 44.499 56.6057 45.259C55.2377 46.019 53.6227 46.399 51.7607 46.399ZM56.1497 42.751C56.8717 42.751 57.5367 42.58 58.1447 42.238C58.7907 41.896 59.4177 41.288 60.0257 40.414V28.729C59.5697 29.489 58.9237 30.135 58.0877 30.667C57.2897 31.161 56.4537 31.712 55.5797 32.32C54.7437 32.89 54.0407 33.631 53.4707 34.543C52.9007 35.455 52.6157 36.671 52.6157 38.191C52.6157 39.825 52.9577 41.003 53.6417 41.725C54.3257 42.409 55.1617 42.751 56.1497 42.751ZM80.1486 1.825C81.7446 1.825 82.9986 2.224 83.9106 3.022C84.8606 3.782 85.3356 4.846 85.3356 6.214C85.3356 7.582 84.8606 8.665 83.9106 9.463C82.9986 10.223 81.7446 10.603 80.1486 10.603C78.5526 10.603 77.2796 10.223 76.3296 9.463C75.4176 8.665 74.9616 7.582 74.9616 6.214C74.9616 4.846 75.4176 3.782 76.3296 3.022C77.2796 2.224 78.5526 1.825 80.1486 1.825ZM84.5946 15.904V40.699C84.5946 42.295 84.8606 43.378 85.3926 43.948C85.9626 44.518 86.9126 44.803 88.2426 44.803V46C87.5586 45.962 86.4946 45.924 85.0506 45.886C83.6066 45.81 82.1436 45.772 80.6616 45.772C79.1796 45.772 77.6786 45.81 76.1586 45.886C74.6386 45.924 73.4986 45.962 72.7386 46V44.803C74.0686 44.803 74.9996 44.518 75.5316 43.948C76.1016 43.378 76.3866 42.295 76.3866 40.699V22.744C76.3866 21.034 76.1206 19.78 75.5886 18.982C75.0946 18.146 74.1446 17.728 72.7386 17.728V16.531C73.9546 16.645 75.1326 16.702 76.2726 16.702C77.8686 16.702 79.3506 16.645 80.7186 16.531C82.1246 16.379 83.4166 16.17 84.5946 15.904ZM101.346 1.369V40.699C101.346 42.295 101.612 43.378 102.144 43.948C102.714 44.518 103.664 44.803 104.994 44.803V46C104.272 45.962 103.189 45.924 101.745 45.886C100.301 45.81 98.8381 45.772 97.3561 45.772C95.8741 45.772 94.3731 45.81 92.8531 45.886C91.3711 45.924 90.2501 45.962 89.4901 46V44.803C90.8201 44.803 91.7511 44.518 92.2831 43.948C92.8531 43.378 93.1381 42.295 93.1381 40.699V8.209C93.1381 6.499 92.8721 5.245 92.3401 4.447C91.8461 3.611 90.8961 3.193 89.4901 3.193V1.996C90.7061 2.11 91.8841 2.167 93.0241 2.167C94.5821 2.167 96.0641 2.11 97.4701 1.996C98.8761 1.844 100.168 1.635 101.346 1.369ZM134.292 16.531V17.671C133.57 17.861 132.886 18.317 132.24 19.039C131.594 19.723 130.967 20.901 130.359 22.573L122.322 45.145L120.213 49.135L107.787 20.92C107.141 19.438 106.495 18.545 105.849 18.241C105.241 17.899 104.709 17.728 104.253 17.728V16.531C105.507 16.645 106.799 16.74 108.129 16.816C109.497 16.854 110.808 16.873 112.062 16.873C113.62 16.873 115.045 16.835 116.337 16.759C117.629 16.683 118.845 16.607 119.985 16.531V17.728C119.225 17.728 118.503 17.785 117.819 17.899C117.173 17.975 116.717 18.241 116.451 18.697C116.223 19.115 116.337 19.856 116.793 20.92L123.975 38.248L123.462 38.59L127.68 26.791C128.744 23.713 128.915 21.471 128.193 20.065C127.471 18.621 126.198 17.823 124.374 17.671V16.531C125.248 16.569 126.198 16.607 127.224 16.645C128.25 16.683 129.143 16.702 129.903 16.702C130.663 16.702 131.461 16.683 132.297 16.645C133.133 16.607 133.798 16.569 134.292 16.531ZM122.322 45.145L120.156 51.244C119.434 53.182 118.598 54.531 117.648 55.291C117.116 55.747 116.432 56.089 115.596 56.317C114.76 56.583 113.791 56.716 112.689 56.716C111.777 56.716 110.827 56.564 109.839 56.26C108.889 55.956 108.091 55.462 107.445 54.778C106.799 54.094 106.476 53.22 106.476 52.156C106.476 50.978 106.894 50.028 107.73 49.306C108.566 48.622 109.668 48.28 111.036 48.28C112.29 48.28 113.316 48.584 114.114 49.192C114.912 49.8 115.311 50.693 115.311 51.871C115.311 52.631 115.064 53.353 114.57 54.037C114.114 54.721 113.411 55.234 112.461 55.576C112.651 55.614 112.879 55.633 113.145 55.633C113.411 55.633 113.62 55.633 113.772 55.633C114.912 55.633 115.919 55.272 116.793 54.55C117.667 53.828 118.389 52.688 118.959 51.13L120.954 45.259L122.322 45.145Z" fill="black"/>
</svg>
