<svg width="377" height="93" viewBox="0 0 377 93" fill="none" xmlns="http://www.w3.org/2000/svg">
<path d="M48.512 39.72C52.5227 39.72 55.6587 40.9147 57.92 43.304C60.224 45.6507 61.376 49.0427 61.376 53.48V73H60.096V53.48C60.096 49.4267 59.0933 46.3333 57.088 44.2C55.0827 42.024 52.2453 40.936 48.576 40.936C44.3947 40.936 41.088 42.2373 38.656 44.84C36.224 47.4 35.008 50.792 35.008 55.016V73H33.728V53.48C33.728 49.4267 32.7253 46.3333 30.72 44.2C28.7147 42.024 25.8773 40.936 22.208 40.936C18.0267 40.936 14.72 42.2373 12.288 44.84C9.856 47.4 8.64 50.792 8.64 55.016V73H7.36V39.912H8.64V48.68C9.62133 45.864 11.2853 43.6667 13.632 42.088C15.9787 40.5093 18.816 39.72 22.144 39.72C25.5147 39.72 28.288 40.5733 30.464 42.28C32.64 43.944 34.048 46.376 34.688 49.576C35.5413 46.5467 37.1627 44.1573 39.552 42.408C41.984 40.616 44.9707 39.72 48.512 39.72ZM80.535 39.72C84.375 39.72 87.2977 40.7227 89.303 42.728C91.351 44.6907 92.375 47.5493 92.375 51.304V73H91.095V65.96C90.0283 68.2213 88.407 69.992 86.231 71.272C84.0977 72.552 81.5163 73.192 78.487 73.192C74.8177 73.192 71.9377 72.36 69.847 70.696C67.799 68.9893 66.775 66.728 66.775 63.912C66.775 61.2667 67.6923 59.1333 69.527 57.512C71.4043 55.848 74.4123 55.016 78.551 55.016H91.095V51.368C91.095 47.912 90.199 45.3093 88.407 43.56C86.6577 41.8107 84.055 40.936 80.599 40.936C78.2097 40.936 75.9697 41.3627 73.879 42.216C71.831 43.0267 70.0603 44.136 68.567 45.544L67.671 44.648C69.2497 43.112 71.1697 41.9173 73.431 41.064C75.6923 40.168 78.0603 39.72 80.535 39.72ZM78.487 71.976C84.631 71.976 88.8337 69.16 91.095 63.528V56.232H78.487C74.903 56.232 72.2577 56.9147 70.551 58.28C68.887 59.6453 68.055 61.5013 68.055 63.848C68.055 66.3653 68.9723 68.3493 70.807 69.8C72.6417 71.2507 75.2017 71.976 78.487 71.976ZM129.189 25.512V73H127.909V62.888C126.8 66.0453 124.922 68.5627 122.277 70.44C119.632 72.2747 116.581 73.192 113.125 73.192C110.138 73.192 107.408 72.488 104.933 71.08C102.501 69.6293 100.581 67.624 99.173 65.064C97.765 62.504 97.061 59.624 97.061 56.424C97.061 53.224 97.765 50.3653 99.173 47.848C100.581 45.288 102.501 43.304 104.933 41.896C107.408 40.4453 110.138 39.72 113.125 39.72C116.538 39.72 119.568 40.6587 122.213 42.536C124.901 44.3707 126.8 46.8453 127.909 49.96V25.512H129.189ZM113.125 71.976C115.898 71.976 118.416 71.3147 120.677 69.992C122.938 68.6693 124.709 66.8347 125.989 64.488C127.269 62.0987 127.909 59.4107 127.909 56.424C127.909 53.4373 127.269 50.7707 125.989 48.424C124.709 46.0347 122.938 44.2 120.677 42.92C118.416 41.5973 115.898 40.936 113.125 40.936C110.352 40.936 107.834 41.5973 105.573 42.92C103.312 44.2 101.541 46.0347 100.261 48.424C98.981 50.7707 98.341 53.4373 98.341 56.424C98.341 59.4107 98.981 62.0987 100.261 64.488C101.541 66.8347 103.312 68.6693 105.573 69.992C107.834 71.3147 110.352 71.976 113.125 71.976ZM164.895 56.424H135.455C135.455 59.4107 136.116 62.0987 137.439 64.488C138.761 66.8347 140.575 68.6693 142.879 69.992C145.225 71.3147 147.849 71.976 150.751 71.976C153.012 71.976 155.124 71.5493 157.087 70.696C159.092 69.8 160.735 68.52 162.015 66.856L162.911 67.752C161.46 69.5013 159.668 70.8453 157.535 71.784C155.401 72.7227 153.14 73.192 150.751 73.192C147.593 73.192 144.756 72.488 142.239 71.08C139.764 69.6293 137.801 67.624 136.351 65.064C134.943 62.504 134.239 59.624 134.239 56.424C134.239 53.224 134.9 50.3653 136.223 47.848C137.545 45.288 139.359 43.304 141.663 41.896C144.009 40.4453 146.633 39.72 149.535 39.72C152.393 39.72 154.996 40.424 157.343 41.832C159.689 43.24 161.524 45.1813 162.847 47.656C164.212 50.1307 164.895 52.9467 164.895 56.104V56.424ZM149.535 40.936C146.975 40.936 144.649 41.5547 142.559 42.792C140.468 44.0293 138.783 45.736 137.503 47.912C136.265 50.088 135.583 52.52 135.455 55.208H163.679C163.551 52.52 162.847 50.088 161.567 47.912C160.287 45.736 158.601 44.0293 156.511 42.792C154.42 41.5547 152.095 40.936 149.535 40.936ZM186.009 39.72C188.996 39.72 191.705 40.4453 194.137 41.896C196.612 43.304 198.553 45.288 199.961 47.848C201.369 50.3653 202.073 53.224 202.073 56.424C202.073 59.624 201.369 62.504 199.961 65.064C198.553 67.624 196.612 69.6293 194.137 71.08C191.705 72.488 188.996 73.192 186.009 73.192C182.553 73.192 179.502 72.2747 176.857 70.44C174.212 68.5627 172.334 66.0453 171.225 62.888V73H169.945V25.512H171.225V49.96C172.334 46.8453 174.212 44.3707 176.857 42.536C179.545 40.6587 182.596 39.72 186.009 39.72ZM186.009 71.976C188.782 71.976 191.3 71.3147 193.561 69.992C195.822 68.6693 197.593 66.8347 198.873 64.488C200.153 62.0987 200.793 59.4107 200.793 56.424C200.793 53.4373 200.153 50.7707 198.873 48.424C197.593 46.0347 195.822 44.2 193.561 42.92C191.3 41.5973 188.782 40.936 186.009 40.936C183.236 40.936 180.718 41.5973 178.457 42.92C176.196 44.2 174.425 46.0347 173.145 48.424C171.865 50.7707 171.225 53.4373 171.225 56.424C171.225 59.4107 171.865 62.0987 173.145 64.488C174.425 66.8347 176.196 68.6693 178.457 69.992C180.718 71.3147 183.236 71.976 186.009 71.976ZM230.953 39.912L213.353 78.312C212.158 80.9573 210.814 82.8347 209.321 83.944C207.828 85.0533 206.057 85.608 204.009 85.608C201.022 85.608 198.633 84.6267 196.841 82.664L197.801 81.64C198.697 82.6213 199.636 83.3253 200.617 83.752C201.598 84.1787 202.75 84.392 204.073 84.392C205.78 84.392 207.252 83.9013 208.489 82.92C209.769 81.9813 210.964 80.3173 212.073 77.928L214.377 72.872L199.209 39.912H200.681L215.081 71.528L229.481 39.912H230.953Z" fill="black"/>
<path d="M236.648 74.832L235.368 67.792L255.016 41.488L236.712 47.504V38.352H268.008L244.2 66.768L268.84 69.712V70.416L236.648 74.832ZM305.23 68.88C303.267 70.7147 301.539 72.1653 300.046 73.232C298.553 74.2987 297.209 74.832 296.014 74.832C295.075 74.832 294.222 74.4693 293.454 73.744C292.729 72.976 292.046 71.76 291.406 70.096C290.083 71.248 288.462 72.2293 286.542 73.04C284.622 73.808 282.553 74.32 280.334 74.576C279.651 74.6613 278.99 74.7253 278.35 74.768C277.71 74.8107 277.091 74.832 276.494 74.832C270.478 74.832 267.47 72.6773 267.47 68.368C267.47 67.856 267.513 67.3227 267.598 66.768C267.683 66.2133 267.811 65.616 267.982 64.976C268.366 63.568 269.134 62.3093 270.286 61.2C271.481 60.048 272.91 59.024 274.574 58.128C276.238 57.1893 277.945 56.336 279.694 55.568C281.443 54.7573 283.065 54.0107 284.558 53.328C286.094 52.6027 287.331 51.8987 288.27 51.216C289.251 50.5333 289.742 49.8507 289.742 49.168C289.742 47.2907 289.507 46.032 289.038 45.392C288.569 44.7093 287.673 44.368 286.35 44.368C285.411 44.368 283.961 44.4533 281.998 44.624C280.035 44.7947 277.881 45.0507 275.534 45.392C273.187 45.7333 270.947 46.1813 268.814 46.736L268.494 46.096C269.646 44.9867 271.118 43.92 272.91 42.896C274.745 41.872 276.686 40.9547 278.734 40.144C280.825 39.3333 282.894 38.6933 284.942 38.224C286.99 37.7547 288.846 37.52 290.51 37.52C293.155 37.52 295.118 37.7973 296.398 38.352C297.721 38.864 298.595 39.9093 299.022 41.488C299.491 43.024 299.726 45.3493 299.726 48.464V64.656C299.726 66.192 299.854 67.3013 300.11 67.984C300.409 68.624 301.07 68.944 302.094 68.944C302.435 68.944 302.841 68.9013 303.31 68.816C303.822 68.7307 304.377 68.624 304.974 68.496L305.23 68.88ZM290.254 54.736C289.315 55.5467 288.057 56.4213 286.478 57.36C284.942 58.256 283.449 59.2373 281.998 60.304C280.547 61.328 279.481 62.48 278.798 63.76C278.201 64.9547 277.902 66 277.902 66.896C277.902 67.7493 278.158 68.4533 278.67 69.008C279.225 69.5627 279.993 69.84 280.974 69.84C281.187 69.84 281.401 69.84 281.614 69.84C281.87 69.7973 282.105 69.7547 282.318 69.712C283.171 69.4987 284.153 69.2 285.262 68.816C286.414 68.432 287.481 67.984 288.462 67.472C289.486 66.96 290.211 66.448 290.638 65.936L290.254 54.736ZM310.048 84.048L319.136 69.264L303.328 40.272L314.464 37.52L322.656 63.504L338.336 37.776H339.232L320.8 88.656L310.048 84.048ZM373.13 74.832C366.559 74.832 361.077 74.5333 356.682 73.936C352.287 73.3387 348.81 72.3573 346.25 70.992C343.69 69.6267 341.855 67.8347 340.746 65.616C339.637 63.3973 339.082 60.688 339.082 57.488C339.082 53.3493 339.85 49.7867 341.386 46.8C342.922 43.8133 344.927 41.5307 347.402 39.952C349.919 38.3307 352.565 37.52 355.338 37.52C357.557 37.52 359.797 37.8613 362.058 38.544C364.319 39.2267 366.431 40.336 368.394 41.872C370.357 43.408 371.957 45.4347 373.194 47.952C374.431 50.4267 375.135 53.4773 375.306 57.104L348.106 60.176C348.49 62.5227 349.557 64.528 351.306 66.192C353.098 67.8133 355.786 69.2427 359.37 70.48C362.954 71.7173 367.626 72.912 373.386 74.064L373.13 74.832ZM364.618 51.856C364.405 50.192 363.914 48.6133 363.146 47.12C362.378 45.6267 361.397 44.432 360.202 43.536C359.007 42.5973 357.685 42.128 356.234 42.128C354.527 42.128 353.055 42.5333 351.818 43.344C350.581 44.1547 349.621 45.712 348.938 48.016C348.255 50.2773 347.914 53.6053 347.914 58C347.914 58.2133 347.914 58.4267 347.914 58.64C347.914 58.8107 347.935 59.0027 347.978 59.216L364.618 51.856Z" fill="#CC0101"/>
</svg>
